<svg xmlns="http://www.w3.org/2000/svg" xmlns:xlink="http://www.w3.org/1999/xlink" width="256" height="256" viewBox="0 0 400 400">
  <defs>
    <style>
      .cls-1 {
        fill: #e2e2e2;
      }

      .cls-2 {
        fill: none;
        stroke: #000;
        stroke-linecap: round;
        stroke-linejoin: round;
        stroke-width: 9.56px;
      }

      .cls-2, .cls-3 {
        fill-rule: evenodd;
      }

      .cls-3 {
        filter: url(#filter);
      }
    </style>
    <filter id="filter" x="50" y="114" width="311" height="162" filterUnits="userSpaceOnUse">
      <feOffset result="offset" dy="3" in="SourceAlpha"/>
      <feGaussianBlur result="blur" stdDeviation="2.646"/>
      <feFlood result="flood" flood-opacity="0.35"/>
      <feComposite result="composite" operator="in" in2="blur"/>
      <feBlend result="blend" in="SourceGraphic"/>
    </filter>
  </defs>
  <rect class="cls-1" x="36" y="35" width="328" height="332"/>
  <path class="cls-2" d="M35.74,35.639H364.463V364.362H35.74V35.639Z"/>
  <path id="BA" class="cls-3" d="M63.249,254.663q-3.781,0-5.419,1.449a5.254,5.254,0,0,0,0,7.624q1.636,1.514,5.419,1.513h79.142a43.505,43.505,0,0,0,22.621-6.175q10.4-6.174,15.438-14.934a38.1,38.1,0,0,0,5.041-19.345A34.385,34.385,0,0,0,177.8,203.12q-7.687-9.831-24.2-15.753Q174.4,175.4,174.4,155.987q0-15.374-12.413-26.78t-32.2-11.4H63.249q-3.781,0-5.419,1.45a5.328,5.328,0,0,0,0,7.687q1.636,1.451,5.419,1.449H77.489V254.663H63.249ZM88.075,128.388h41.966q15,0,24.322,8.381t9.326,18.336a24.953,24.953,0,0,1-4.285,13.61,27.428,27.428,0,0,1-11.972,10.208,53.516,53.516,0,0,1-21.928,4.411H88.075V128.388Zm0,65.658h38.059q17.516,0,27.473,3.907a34.509,34.509,0,0,1,15.564,11.468q5.606,7.561,5.608,15.627a27.1,27.1,0,0,1-3.907,13.862A31.951,31.951,0,0,1,159.4,250.126a33.874,33.874,0,0,1-17.769,4.537H88.075V194.046Zm238.813,60.617H306.724q-3.907,0-5.545,1.449a5.254,5.254,0,0,0,0,7.624q1.637,1.514,5.545,1.513H346.17q3.78,0,5.418-1.513a5.252,5.252,0,0,0,0-7.624q-1.638-1.448-5.418-1.449h-8.192L286.309,117.8H233q-3.78,0-5.419,1.45a5.328,5.328,0,0,0,0,7.687q1.637,1.451,5.419,1.449h31.254L217.5,254.663h-8.191q-3.78,0-5.419,1.449a5.254,5.254,0,0,0,0,7.624q1.637,1.514,5.419,1.513H248.88q3.782,0,5.419-1.513a5.254,5.254,0,0,0,0-7.624q-1.64-1.448-5.419-1.449H228.59l14.241-38.689H312.4Zm-80.024-49.275,28.355-77h3.907l29.237,77h-61.5Z"/>
</svg>
